<?xml version="1.0" standalone="no"?>
<!DOCTYPE svg PUBLIC "-//W3C//DTD SVG 20010904//EN"
 "http://www.w3.org/TR/2001/REC-SVG-20010904/DTD/svg10.dtd">
<svg version="1.0" xmlns="http://www.w3.org/2000/svg"
 width="700.000000pt" height="700.000000pt" viewBox="0 0 700.000000 700.000000"
 preserveAspectRatio="xMidYMid meet">
<metadata>
Created by potrace 1.14, written by Peter Selinger 2001-2017
</metadata>
<g transform="translate(0.000000,700.000000) scale(0.100000,-0.100000)"
fill="#000000" stroke="none">
<path d="M3278 6995 c-1 -1 -42 -6 -89 -9 -47 -4 -94 -8 -105 -10 -10 -2 -46
-7 -79 -11 -32 -4 -68 -9 -80 -11 -11 -2 -45 -8 -75 -14 -83 -15 -89 -16 -180
-40 -47 -12 -93 -24 -103 -26 -28 -5 -268 -84 -302 -99 -16 -7 -60 -25 -97
-39 -202 -78 -582 -290 -738 -413 -8 -6 -51 -40 -95 -74 -342 -266 -650 -623
-875 -1014 -47 -81 -170 -327 -170 -339 0 -3 -11 -29 -24 -58 -50 -111 -118
-318 -160 -483 -21 -84 -32 -138 -61 -295 -1 -8 -6 -40 -10 -70 -3 -30 -8 -66
-10 -80 -25 -164 -25 -674 0 -821 2 -13 6 -46 9 -74 9 -78 22 -152 51 -285 21
-96 91 -339 114 -395 5 -11 25 -65 46 -120 67 -177 177 -391 318 -620 35 -57
179 -251 240 -325 139 -167 300 -327 467 -467 75 -62 271 -207 325 -240 392
-239 659 -355 1040 -453 139 -35 329 -72 435 -84 238 -28 686 -28 852 -1 13 2
46 7 73 10 71 10 87 13 115 18 14 3 43 8 65 12 22 4 76 16 120 27 44 10 87 21
96 23 34 7 167 48 239 72 558 189 1090 542 1480 982 36 41 70 79 76 85 6 6 48
61 94 121 150 197 277 405 383 628 26 53 47 99 47 102 0 2 11 28 24 57 24 54
77 199 115 318 25 79 74 285 95 400 14 81 17 101 32 215 3 27 8 61 11 75 8 48
10 555 2 620 -4 36 -10 90 -13 120 -4 30 -8 66 -10 80 -2 14 -7 48 -11 75 -3
28 -9 58 -11 67 -3 10 -7 30 -10 45 -37 207 -115 459 -216 697 -396 930 -1187
1652 -2145 1956 -160 51 -338 96 -450 114 -33 5 -116 19 -123 21 -3 1 -41 5
-85 10 -44 4 -89 10 -100 12 -25 4 -532 13 -537 8z"/>
</g>
</svg>
